<?xml version="1.0" encoding="UTF-8" standalone="no"?>
<svg
   xmlns:dc="http://purl.org/dc/elements/1.1/"
   xmlns:cc="http://creativecommons.org/ns#"
   xmlns:rdf="http://www.w3.org/1999/02/22-rdf-syntax-ns#"
   xmlns:svg="http://www.w3.org/2000/svg"
   xmlns="http://www.w3.org/2000/svg"
   xmlns:sodipodi="http://sodipodi.sourceforge.net/DTD/sodipodi-0.dtd"
   xmlns:inkscape="http://www.inkscape.org/namespaces/inkscape"
   width="66.727982"
   height="162.06625"
   id="svg2"
   version="1.1"
   inkscape:version="0.48.4 r9939"
   sodipodi:docname="body.svg">
  <metadata
     id="metadata34">
    <rdf:RDF>
      <cc:Work
         rdf:about="">
        <dc:format>image/svg+xml</dc:format>
        <dc:type
           rdf:resource="http://purl.org/dc/dcmitype/StillImage" />
      </cc:Work>
    </rdf:RDF>
  </metadata>
  <defs
     id="defs32" />
  <sodipodi:namedview
     pagecolor="#ffffff"
     bordercolor="#666666"
     borderopacity="1"
     objecttolerance="10"
     gridtolerance="10"
     guidetolerance="10"
     inkscape:pageopacity="0"
     inkscape:pageshadow="2"
     inkscape:window-width="1280"
     inkscape:window-height="748"
     id="namedview30"
     showgrid="false"
     inkscape:zoom="4.0455078"
     inkscape:cx="26.579488"
     inkscape:cy="113.43923"
     inkscape:window-x="0"
     inkscape:window-y="0"
     inkscape:window-maximized="1"
     inkscape:current-layer="svg2"
     fit-margin-top="0"
     fit-margin-left="0"
     fit-margin-right="0"
     fit-margin-bottom="0"
     borderlayer="true" />
  <path
     style="fill:#483737;fill-rule:evenodd"
     mask="none"
     d="M 48.50358,83.68462 33.612252,87.0387 c 0.02624,0.36614 0.05194,0.76263 0.108671,1.47521 0.508845,6.41837 0.868579,20.3622 2.173916,26.33534 0.616175,2.82397 1.447224,6.34387 1.211195,9.93797 -0.403973,6.16711 -0.64707,7.71693 0.108696,14.0528 0.711557,5.9598 -1.590428,16.01459 -3.835418,21.55301 -0.03663,-0.1065 -0.07187,-0.23295 -0.108674,-0.34176 l -0.248457,1.3821 c 0.158275,-0.1717 0.284839,-0.37583 0.357131,-0.62092 0.400524,1.05796 1.406836,1.24136 2.686349,0.90044 0.524738,-0.14007 1.077903,0.7587 2.251573,-0.24873 0.419864,-0.35997 0.7739,0.14801 1.459618,-0.63631 0.418888,-0.47999 0.973664,0.35468 1.645981,-0.23295 0.15651,-0.13783 0.532153,-0.47106 0.683221,-0.41942 0.965947,0.33694 0.965339,-0.31459 0.481354,-1.61498 -1.05739,-2.83952 -1.774646,-4.45925 -1.273274,-7.43786 0.334904,-1.99243 0.682117,-3.65189 1.413039,-5.86946 3.397289,-10.29969 3.87279,-15.25306 3.043474,-22.82628 -0.979367,-8.94197 0.312797,-11.3619 2.080764,-19.23907 1.482321,-6.60329 1.431779,-13.12619 0.652169,-19.50321 z m -15.000029,3.38503 -0.139752,0.0322 0.03091,1.55286 c 0.05215,-0.64058 0.0906,-1.1746 0.108698,-1.58391 z"
     id="right_leg"
     inkscape:label="#path4"
     inkscape:connector-curvature="0" />
  <path
     style="fill:#483737;fill-rule:evenodd"
     mask="none"
     d="m 18.224,82.5668 c -0.866459,6.94219 -0.953544,14.39548 0.698781,21.25755 2.154519,8.95221 2.296633,10.63481 2.049665,20.31063 -0.170405,6.73143 -0.147677,12.8182 2.655317,20.55909 0.990312,2.7364 1.405824,4.15932 1.816758,6.44415 0.532185,2.95901 -0.697498,5.2605 -1.475143,8.2454 -0.357288,1.37346 0.358642,1.04569 0.667685,0.83844 0.154057,-0.10325 0.254292,0.14192 0.481383,0.37284 0.772657,0.78198 1.104595,-0.12959 1.428553,0.24834 0.838276,0.97845 1.238796,0.25383 2.111809,0.86965 1.269072,0.89443 1.65952,-0.2242 2.282631,0.0465 1.061381,0.46113 2.148681,0.0349 2.437873,-0.94704 0.03513,0.0931 0.08006,0.16851 0.124239,0.2483 l -0.04646,-0.85419 c -0.02418,0.0597 -0.05326,0.12636 -0.07757,0.1864 -1.971201,-5.73866 -4.352569,-14.77788 -3.695692,-21.55298 0.66089,-6.82576 1.016413,-8.10333 0.155295,-13.75782 -0.58684,-3.85496 0.252538,-6.84361 1.00933,-10.1553 1.408557,-6.15803 1.970914,-18.90177 2.499973,-25.69861 l 0.01553,-2.12755 -15.139796,-4.53391 z"
     id="left_leg"
     inkscape:label="#path4-0"
     inkscape:connector-curvature="0" />
  <path
     style="fill:#483737;fill-rule:evenodd"
     mask="none"
     d="m 46.904197,26.603817 0,21.413003 c 1.431821,4.95948 2.004886,10.30848 2.670828,15.15522 0.806472,5.8631 4.498677,8.35111 6.366523,14.41019 -0.185865,3.32651 0.330249,3.86309 0.170797,6.19542 -0.12578,1.84523 -0.359793,3.52224 -0.372662,5.03127 -0.02118,2.36508 1.259785,2.37325 1.521703,0.2642 0.11078,-0.89529 0.30853,-2.69952 0.434793,-2.71769 0.175359,1.42083 0.372496,2.92823 0.481357,3.89743 0.345358,3.06039 1.906329,2.86931 1.770172,-0.0933 -0.04481,-0.97276 -0.216169,-4.00445 -0.06217,-4.00612 0.357313,1.73923 0.621904,3.08365 0.838518,4.27016 0.540156,2.96612 2.316567,3.14491 1.925537,-0.24854 -0.147594,-1.27641 -0.748001,-4.14392 -0.574624,-4.23916 0.623176,1.35166 1.13049,2.38634 1.552857,3.18359 1.399344,2.63794 2.787812,1.71695 1.708055,-0.77648 -0.789557,-1.82369 -1.711498,-3.95256 -2.453415,-5.49708 0.436734,-0.20612 1.019252,0.99885 1.444117,1.56839 2.107804,2.83039 3.229801,2.31922 1.676983,-0.86957 C 65.550943,82.61708 65.160441,81.7085 64.65266,80.76531 63.40745,77.99397 62.322223,77.97815 60.925946,75.53232 59.029242,70.18021 59.558108,65.51188 58.146374,60.48569 55.730016,51.87494 55.572117,50.24431 55.056315,40.99807 53.873516,32.43463 52.190211,29.223924 46.904151,26.603689 z"
     id="right_arm"
     inkscape:label="#path4-6"
     inkscape:connector-curvature="0" />
  <path
     style="fill:#483737;fill-rule:evenodd"
     mask="none"
     d="m 21.019039,26.168974 c -6.433026,2.674332 -8.735224,6.050875 -8.804357,15.000076 -0.540123,9.66771 -1.021247,9.53132 -3.8043525,19.09947 -1.1527864,5.15522 -0.8508143,10.27539 -2.9969063,15.29494 -0.785593,1.83941 -2.564354,3.41598 -3.4627404,5.68331 -0.5078291,0.94216 -0.7745372,1.12107 -1.22671158,2.04973 -1.55230143,3.18959 -0.42981474,3.69886 1.67702158,0.86948 0.4243499,-0.57034 0.8821152,-1.04558 1.3198794,-0.83825 -0.7418642,1.54424 -1.5391339,2.94286 -2.329199,4.76701 -1.07975252,2.4933 0.3093192,3.41486 1.7080784,0.7763 0.422364,-0.79522 0.9296941,-1.83317 1.5528004,-3.18336 0.1729175,0.0941 -0.4274539,2.96111 -0.5745357,4.23938 -0.3910574,3.39232 1.3858409,3.21381 1.9254701,0.24811 0.2166448,-1.18627 0.480747,-2.52982 0.8385069,-4.26989 0.1540447,0.006 -0.016891,3.03518 -0.062117,4.00615 -0.1366393,2.96342 1.4253425,3.15247 1.7701909,0.0931 0.1093151,-0.96864 0.3074584,-2.4772 0.4813688,-3.89757 0.1252216,0.0181 0.3244656,1.82212 0.4347823,2.71761 0.2613741,2.10793 1.5430987,2.10218 1.5217327,-0.26401 -0.01343,-1.50899 -0.429316,-3.18396 -0.372659,-5.03082 0.05256,-1.69907 -0.299385,-4.417 -0.0309,-6.50636 0.440742,-3.4151 4.870701,-10.06504 6.226715,-13.88211 1.578396,-4.44306 1.019127,-10.11047 3.354053,-16.24229 l 0.854039,-20.729828 z"
     id="left_arm"
     inkscape:label="#path4-9"
     inkscape:connector-curvature="0" />
  <path
     style="fill:#483737;fill-rule:evenodd;stroke:none"
     mask="none"
     d="m 33.429893,0 c -6.776173,0.231549 -8.221472,4.377629 -6.460947,10.760744 -0.357765,-0.239292 -0.459797,-0.232608 -1.058079,0.06762 -0.236504,1.813222 -0.0084,2.954929 1.35072,3.894574 0.444729,1.836041 0.856716,2.861956 1.778462,4.18724 0.02694,1.750058 0.09379,2.640647 -0.315176,3.196696 -0.626583,0.851185 -2.108853,0.936481 -3.691968,2.63391 -1.494805,0.480783 -2.811487,0.943899 -4.007147,1.440774 L 20.170303,46.84753 c 0.172984,-0.45093 0.378772,-0.89506 0.585317,-1.35068 -1.208918,8.62715 2.273827,14.79752 -0.292644,25.2135 -0.887581,3.60177 -1.697741,7.63976 -2.228701,11.86382 l 15.128062,4.5474 0.135073,-0.0445 c -0.0167,0.38052 -0.04329,0.90426 -0.09006,1.48595 0.09944,-1.25951 0.118029,-2.13143 0.135082,-2.27378 0.0104,-0.0879 0.02943,0.22569 0.0676,0.76546 L 48.49047,83.70023 c -0.542754,-4.42659 -1.424147,-8.78962 -2.386292,-13.05699 -2.509344,-11.13295 0.564334,-15.50792 -0.02259,-25.19091 0.309878,0.84044 0.582184,1.69621 0.832958,2.56637 l 0,-21.38641 c -0.004,-0.0021 0.004,-0.02109 0,-0.02258 -1.487598,-0.737489 -3.250299,-1.432897 -5.380385,-2.183668 -1.717768,-1.801749 -2.874624,-1.694655 -3.331786,-2.543863 -0.263328,-0.487004 -0.375981,-1.454479 -0.427728,-3.10665 0.845223,-1.24873 1.404726,-2.516288 1.620872,-3.984625 1.428691,-0.949587 1.659245,-2.114149 1.418269,-3.962117 -0.617652,-0.309241 -0.692502,-0.309889 -1.080574,-0.04498 C 41.045507,5.002343 40.429105,0.112802 33.429844,5.01e-4 z m -0.02263,88.5621 -0.04496,-1.44066 -0.02261,2.11617 c -0.119378,1.53356 -0.228082,3.43012 -0.36019,5.42537 0.150355,-2.27185 0.29278,-4.33086 0.427729,-5.98809 7.15e-4,-0.01 -7.16e-4,-0.0142 0,-0.0234 0.004,-0.036 -0.004,-0.0539 0,-0.0907 z M 15.262644,29.940971 c -0.129953,0.147811 -0.262075,0.294914 -0.382682,0.450247 0.120735,-0.155302 0.252673,-0.302443 0.382682,-0.450247 z M 14.67734,30.66134 c -0.141404,0.195922 -0.277337,0.399375 -0.405221,0.607829 0.127575,-0.207213 0.264304,-0.412991 0.405221,-0.607829 z m 46.014563,44.12352 c 0.07884,0.24873 0.135967,0.51385 0.225102,0.7653 0.275575,0.48278 0.555475,0.8376 0.810455,1.17071 -0.251155,-0.3298 -0.515923,-0.69423 -0.787936,-1.17071 -0.09108,-0.25693 -0.167174,-0.51128 -0.247621,-0.7653 z m 2.18365,8.08184 c 0.741933,1.54439 1.664269,3.66914 2.453812,5.49292 0.202466,0.46761 0.337593,0.87182 0.382706,1.21575 -0.04494,-0.34345 -0.157738,-0.74814 -0.36019,-1.21575 -0.786827,-1.8173 -1.713326,-3.94979 -2.453804,-5.49292 -0.0075,0.003 -0.01582,-0.004 -0.0226,0 z M 0.13458304,84.80276 C 0.09296658,84.9473 0.06590893,85.0655 0.04453514,85.18559 0.06456909,85.0723 0.09653957,84.93787 0.13458304,84.80276 z M 59.881457,86.17583 c 0.357314,1.73914 0.616314,3.06845 0.832942,4.2548 0.135037,0.7416 0.347949,1.30765 0.585333,1.6884 -0.236403,-0.38075 -0.427769,-0.94679 -0.562819,-1.6884 -0.21551,-1.1805 -0.5009,-2.52841 -0.855456,-4.2548 z m -0.02262,5.35795 c -0.02482,0.11924 -0.05688,0.24103 -0.09004,0.33791 0.0369,-0.10457 0.06304,-0.20641 0.09004,-0.33791 z M 17.626324,93.4473 c 0.01908,0.79832 0.0607,1.59085 0.112544,2.38637 -0.0524,-0.79663 -0.09282,-1.58698 -0.112544,-2.38637 z m 31.381728,0.42784 c -0.01926,0.59753 -0.05063,1.20143 -0.09004,1.80084 0.03889,-0.6013 0.07127,-1.20133 0.09004,-1.80084 z m -0.112559,2.20618 c -0.04026,0.54741 -0.0995,1.09448 -0.157575,1.64326 0.05788,-0.55057 0.117751,-1.09406 0.157575,-1.64326 z m -0.247624,2.43125 c -0.08987,0.73701 -0.190312,1.4667 -0.315159,2.2062 0.124061,-0.73639 0.226028,-1.47216 0.315159,-2.2062 z m -0.315159,2.2062 c -0.138962,0.82265 -0.287477,1.65091 -0.47276,2.47637 0.185457,-0.82635 0.333999,-1.65289 0.47276,-2.47637 z m -0.47276,2.47637 c -0.44199,1.96914 -0.861182,3.59071 -1.215641,5.065 0.355661,-1.47298 0.773651,-3.09587 1.215641,-5.065 z m -1.215641,5.065 c -0.320987,1.33517 -0.582558,2.56054 -0.787921,3.7821 0.207229,-1.22776 0.463844,-2.43995 0.787921,-3.7821 z m -28.004904,-5.718 c 0.08869,0.42648 0.168437,0.86081 0.270138,1.28312 0.807967,3.35718 1.334562,5.69534 1.665882,7.81171 -0.327571,-2.11731 -0.835412,-4.45454 -1.643369,-7.81171 -0.103264,-0.4288 -0.20274,-0.84997 -0.292651,-1.28312 z m 12.471644,11.16593 c -0.08169,0.43328 -0.18211,0.85335 -0.270145,1.23821 -0.189186,0.8279 -0.364342,1.62535 -0.540279,2.43128 0.176294,-0.80804 0.373613,-1.62569 0.562786,-2.45368 0.08699,-0.38023 0.166928,-0.78787 0.247638,-1.21581 z m 5.9882,11.09857 c -0.150749,2.29875 -0.276546,3.96323 -0.337684,5.47038 0.06203,-1.50995 0.186182,-3.15793 0.337684,-5.47038 z m -0.270155,10.04023 c 0.07749,1.13428 0.193766,2.42325 0.382719,4.00723 -0.188953,-1.58395 -0.305541,-2.87458 -0.382719,-4.00723 z m 0.382719,4.00723 c 0.08733,0.73074 0.132555,1.52627 0.135059,2.3637 -0.003,-0.83922 -0.04774,-1.63196 -0.135059,-2.3637 z m -1.418271,13.70971 c -0.227456,0.95551 -0.464531,1.89011 -0.72037,2.79157 0.255966,-0.90204 0.492679,-1.83533 0.72037,-2.79157 z m 6.303375,7.63154 c 0.241487,0.0841 0.433259,0.10211 0.562789,0.0678 -0.128224,0.0339 -0.321306,0.0173 -0.562789,-0.0678 z m -2.566374,0.87815 c -0.152251,0.1236 -0.282004,0.19535 -0.405206,0.22495 0.126426,-0.0304 0.248479,-0.0961 0.405206,-0.22495 z m -0.900482,0.27003 c -0.102956,0.0156 -0.210202,0.0445 -0.315179,0.13499 0.104977,-0.0905 0.211896,-0.12039 0.315179,-0.13499 z m -2.363745,0.3602 c -0.06772,-0.01 -0.137027,0.007 -0.202628,0.0234 0.131195,-0.0356 0.261275,-0.005 0.40523,0.0445 -0.07194,-0.0252 -0.134983,-0.0576 -0.202602,-0.0678 z m -1.868516,0.0907 c 0.115016,0.0344 0.232107,0.0547 0.360205,0.0678 -0.128503,-0.0131 -0.244798,-0.0338 -0.360205,-0.0678 z m 0.360205,0.0678 c 0.128436,0.0132 0.264868,0.0297 0.405217,0.0234 -0.140269,0.01 -0.276749,-0.0107 -0.405217,-0.0234 z"
     id="chest"
     inkscape:connector-curvature="0"
     inkscape:label="#chest-6" />
</svg>
